
<svg width="1920px" height="990px" viewBox="0 0 1920 990" version="1.1" xmlns="http://www.w3.org/2000/svg" xmlns:xlink="http://www.w3.org/1999/xlink">
    <g id="Page-1" stroke="none" stroke-width="1" fill="none" fill-rule="evenodd">
        <g id="Hero_2" fill="#05A7BF">
            <path d="M957.745625,-1216.57773 L3283.74563,-1216.57773 L3283.74563,88.4222735 L1257.74563,88.4222735 C1092.0602,88.4222735 957.745625,-45.8923016 957.745625,-211.577727 L957.745625,-1216.57773 Z" id="part_1" transform="translate(2120.745625, -564.077727) rotate(-22.000000) translate(-2120.745625, 564.077727) "></path>
            <path d="M-1180.03343,-435.215548 L1099.96657,-435.215548 L1099.96657,652.784452 C1099.96657,818.469877 965.651995,952.784452 799.96657,952.784452 L-1180.03343,952.784452 L-1180.03343,-435.215548 Z" id="part_2" transform="translate(-40.033430, 258.784452) rotate(-22.000000) translate(40.033430, -258.784452) "></path>
            <path d="M1728.13445,14.7214116 L3708.13445,14.7214116 L3708.13445,1184.72141 L1428.13445,1184.72141 L1428.13445,314.721412 C1428.13445,149.035987 1562.44903,14.7214116 1728.13445,14.7214116 Z" id="part_3" transform="translate(2568.134451, 599.721412) rotate(-22.000000) translate(-2568.134451, -599.721412) "></path>
            <path d="M-443.023654,818.577727 L1316.97635,818.577727 C1482.66177,818.577727 1616.97635,952.892302 1616.97635,1118.57773 L1616.97635,2206.57773 L-443.023654,2206.57773 L-443.023654,818.577727 Z" id="part_4" transform="translate(586.976346, 1512.577727) rotate(-22.000000) translate(-586.976346, -1512.577727) "></path>
        </g>
    </g>
</svg>