
<svg width="1920px" height="990px" viewBox="0 0 1920 990" version="1.1" xmlns="http://www.w3.org/2000/svg" xmlns:xlink="http://www.w3.org/1999/xlink">
    <g id="Page-1" stroke="none" stroke-width="1" fill="none" fill-rule="evenodd">
        <g id="Hero_1">
               <path d="M841.586538,-88.7585061 L3167.58654,-88.7585061 L3167.58654,1216.24149 L1141.58654,1216.24149 C975.901113,1216.24149 841.586538,1081.92692 841.586538,916.241494 L841.586538,-88.7585061 Z" id="part_1" fill="#982AE7" transform="translate(2004.586538, 563.741494) rotate(26.000000) translate(-2004.586538, -563.741494) "></path>
            <path d="M-1196.47835,-1177.08236 L1083.52165,-1177.08236 L1083.52165,-89.0823585 C1083.52165,76.6030665 949.20707,210.917642 783.521645,210.917642 L-1196.47835,210.917642 L-1196.47835,-1177.08236 Z" id="part_2" fill="#982AE7" transform="translate(-56.478355, -483.082358) rotate(26.000000) translate(56.478355, 483.082358) "></path>
            <path d="M595.361063,1088.29546 L2575.36106,1088.29546 L2575.36106,2258.29546 L295.361063,2258.29546 L295.361063,1388.29546 C295.361063,1222.61004 429.675639,1088.29546 595.361063,1088.29546 Z" id="part_3" fill="#982AE7" transform="translate(1435.361063, 1673.295461) rotate(26.000000) translate(-1435.361063, -1673.295461) "></path>
            <path d="M-1601.39263,124.173819 L158.607368,124.173819 C324.292793,124.173819 458.607368,258.488394 458.607368,424.173819 L458.607368,1512.17382 L-1601.39263,1512.17382 L-1601.39263,124.173819 Z" id="part_4" fill="#982AE7" transform="translate(-571.392632, 818.173819) rotate(26.000000) translate(571.392632, -818.173819) "></path>
        </g>
    </g>
</svg>